<?xml version="1.0" encoding="UTF-8" standalone="no"?>
<svg width="100px" height="100px" viewBox="0 0 100 100" version="1.1" xmlns="http://www.w3.org/2000/svg" xmlns:xlink="http://www.w3.org/1999/xlink">
	<g stroke="none" stroke-width="1" fill="none" fill-rule="evenodd">
		<path d="M120,108 C120,114.6 114.6,120 108,120 L12,120 C5.4,120 0,114.6 0,108 L0,12 C0,5.4 5.4,0 12,0 L108,0 C114.6,0 120,5.4 120,12 L120,108 L120,108 Z" id="Shape" fill="#44C2B3"/>
		<path fill="#FFF" d="m15.2 68.2l14.2-17.2c0.4-0.7 0.4-1.5 0-2.1l-14.2-17c-0.1-0.2-0.2-0.4-0.2-0.6 0-0.6 0.5-1 1-1h20.7c0.6 0 1.1 0.2 1.4 0.7l14.9 18c0.4 0.6 0.4 1.4 0 2.1l-14.8 18c-0.3 0.4-0.9 0.7-1.4 0.7h-20.7c-0.6 0-1-0.4-1-1-0.1-0.2 0-0.5 0.1-0.6z m31.6 0l14.1-17.2c0.4-0.7 0.4-1.5 0-2.1l-14.2-17c-0.1-0.2-0.2-0.4-0.2-0.6 0-0.6 0.5-1 1-1h20.7c0.6 0 1.1 0.2 1.4 0.7l14.9 18c0.4 0.6 0.4 1.4 0 2.1l-14.8 18c-0.3 0.4-0.9 0.7-1.4 0.7h-20.7c-0.6 0-1-0.4-1-1 0-0.2 0.1-0.5 0.2-0.6z"></path>
	</g>
</svg>